HIERARCHY
ROOT Hips
{
	OFFSET 0.00000 0.00000 0.00000
	CHANNELS 6 Xposition Yposition Zposition Zrotation Yrotation Xrotation 
	JOINT LHipJoint
	{
		OFFSET 0 0 0
		CHANNELS 3 Zrotation Yrotation Xrotation
		JOINT LeftUpLeg
		{
			OFFSET 1.62964 -1.40469 0.78906
			CHANNELS 3 Zrotation Yrotation Xrotation
			JOINT LeftLeg
			{
				OFFSET 2.29640 -6.30932 0.00000
				CHANNELS 3 Zrotation Yrotation Xrotation
				JOINT LeftFoot
				{
					OFFSET 2.29451 -6.30412 0.00000
					CHANNELS 3 Zrotation Yrotation Xrotation
					JOINT LeftToeBase
					{
						OFFSET 0.03611 -0.09921 1.56387
						CHANNELS 3 Zrotation Yrotation Xrotation
						End Site
						{
							OFFSET 0.00000 -0.00000 0.80291
						}
					}
				}
			}
		}
	}
	JOINT RHipJoint
	{
		OFFSET 0 0 0
		CHANNELS 3 Zrotation Yrotation Xrotation
		JOINT RightUpLeg
		{
			OFFSET -1.73712 -1.40469 0.78906
			CHANNELS 3 Zrotation Yrotation Xrotation
			JOINT RightLeg
			{
				OFFSET -2.28137 -6.26801 0.00000
				CHANNELS 3 Zrotation Yrotation Xrotation
				JOINT RightFoot
				{
					OFFSET -2.28681 -6.28298 0.00000
					CHANNELS 3 Zrotation Yrotation Xrotation
					JOINT RightToeBase
					{
						OFFSET -0.15927 -0.43759 1.61103
						CHANNELS 3 Zrotation Yrotation Xrotation
						End Site
						{
							OFFSET -0.00000 -0.00000 0.84630
						}
					}
				}
			}
		}
	}
	JOINT LowerBack
	{
		OFFSET 0 0 0
		CHANNELS 3 Zrotation Yrotation Xrotation
		JOINT Spine
		{
			OFFSET -0.04227 2.04338 -0.00225
			CHANNELS 3 Zrotation Yrotation Xrotation
			JOINT Spine1
			{
				OFFSET -0.02148 2.04482 -0.04273
				CHANNELS 3 Zrotation Yrotation Xrotation
				JOINT Neck
				{
					OFFSET 0 0 0
					CHANNELS 3 Zrotation Yrotation Xrotation
					JOINT Neck1
					{
						OFFSET 0.09180 1.44629 0.19359
						CHANNELS 3 Zrotation Yrotation Xrotation
						JOINT Head
						{
							OFFSET 0.00887 1.40645 0.14750
							CHANNELS 3 Zrotation Yrotation Xrotation
							End Site
							{
								OFFSET -0.00669 1.50671 0.03707
							}
						}
					}
				}
				JOINT LeftShoulder
				{
					OFFSET 0 0 0
					CHANNELS 3 Zrotation Yrotation Xrotation
					JOINT LeftArm
					{
						OFFSET 2.17674 1.86763 -0.06520
						CHANNELS 3 Zrotation Yrotation Xrotation
						JOINT LeftForeArm
						{
							OFFSET 4.65776 -0.00000 0.00000
							CHANNELS 3 Zrotation Yrotation Xrotation
							JOINT LeftHand
							{
								OFFSET 3.55539 -0.00000 0.00000
								CHANNELS 3 Zrotation Yrotation Xrotation
								JOINT LeftFingerBase
								{
									OFFSET 0 0 0
									CHANNELS 3 Zrotation Yrotation Xrotation
									JOINT LeftHandIndex1
									{
										OFFSET 0.70726 -0.00000 0.00000
										CHANNELS 3 Zrotation Yrotation Xrotation
										End Site
										{
											OFFSET 0.57022 -0.00000 0.00000
										}
									}
								}
								JOINT LThumb
								{
									OFFSET 0 0 0
									CHANNELS 3 Zrotation Yrotation Xrotation
									End Site
									{
										OFFSET 0.57892 -0.00000 0.57892
									}
								}
							}
						}
					}
				}
				JOINT RightShoulder
				{
					OFFSET 0 0 0
					CHANNELS 3 Zrotation Yrotation Xrotation
					JOINT RightArm
					{
						OFFSET -2.80694 1.55459 -0.32496
						CHANNELS 3 Zrotation Yrotation Xrotation
						JOINT RightForeArm
						{
							OFFSET -4.71925 -0.00000 -0.00000
							CHANNELS 3 Zrotation Yrotation Xrotation
							JOINT RightHand
							{
								OFFSET -3.56990 -0.00000 0.00000
								CHANNELS 3 Zrotation Yrotation Xrotation
								JOINT RightFingerBase
								{
									OFFSET 0 0 0
									CHANNELS 3 Zrotation Yrotation Xrotation
									JOINT RightHandIndex1
									{
										OFFSET -0.50776 -0.00000 0.00000
										CHANNELS 3 Zrotation Yrotation Xrotation
										End Site
										{
											OFFSET -0.40937 -0.00000 0.00000
										}
									}
								}
								JOINT RThumb
								{
									OFFSET 0 0 0
									CHANNELS 3 Zrotation Yrotation Xrotation
									End Site
									{
										OFFSET -0.41562 -0.00000 0.41562
									}
								}
							}
						}
					}
				}
			}
		}
	}
}
MOTION
Frames: 12
Frame Time: .0083333
8.9709 16.2683 31.3132 0 0 0 0 0 0 -21 0 0 0 0 0 0 0 0 0 0 0 0 0 0 21 0 0 0 0 0 0 0 0 0 0 0 0 0 0 0 0 0 0 0 0 0 0 -16 0 0 21 0 0 11 0 0 0 -8 0 0 0 0 0 0 0 0 0 0 0 0 0 0 0 0 0 0 0 0 8 0 0 0 0 0 0 0 0 0 0 0 0 0 0 0 0 0
8.9709 16.2683 31.3132 179.0400 -0.6739 -153.7730 0.0000 0.0000 0.0000 -18.5030 -15.3951 -20.1772 0.2121 2.9649 8.1810 0.2601 0.4980 -9.8267 4.2517 -12.4881 -37.4811 0.0000 0.0000 0.0000 17.9004 15.7648 -20.0120 -0.2443 -3.1807 8.7824 -1.3441 -1.1827 -22.3669 -2.9938 10.6850 -31.2247 -5.3541 -1.5883 -30.8606 -0.4552 -1.0213 -1.9843 1.9125 -1.1249 13.9789 -1.4679 -3.8441 0.3783 5.4093 -4.2340 -10.8238 2.1511 -2.0282 -3.4097 -0.0000 -0.0000 0.0000 -87.2207 -5.7830 32.2161 7.9683 -13.5014 -0.9447 -0.0000 -0.0000 9.3022 21.9883 -9.8047 -3.9336 -7.1250 0.0000 -0.0000 -3.5569 19.4333 2.1750 -0.0000 -0.0000 0.0000 92.7084 5.3681 12.5774 -10.8331 18.0319 -1.7239 0.0000 0.0000 6.1442 -11.9231 -51.7262 9.4123 7.1250 -0.0000 -0.0000 62.1287 -75.2719 -47.9954
8.9683 16.2690 31.3096 179.0300 -0.6432 -153.8320 0.0000 0.0000 0.0000 -18.5060 -15.6265 -19.9801 0.2090 2.9432 8.1208 0.2621 0.7548 -9.9736 4.2595 -12.4980 -37.5172 0.0000 0.0000 0.0000 17.8774 15.6634 -19.9814 -0.2472 -3.1996 8.8349 -1.3541 -1.1673 -22.4423 -3.0965 10.8497 -31.7745 -5.3272 -1.5457 -30.8480 -0.4769 -0.9739 -1.9911 1.8937 -1.1015 13.9615 -1.4672 -3.8634 0.4946 5.4232 -4.2546 -10.9075 2.1621 -2.0404 -3.4599 0.0000 0.0000 0.0000 -87.2604 -5.7513 32.2592 7.9577 -13.4843 -0.9422 -0.0000 -0.0000 9.4863 22.2646 -10.2280 -4.1579 -7.1250 0.0000 -0.0000 -3.3725 18.9578 2.0975 0.0000 0.0000 0.0000 92.7322 5.3996 12.4739 -10.7952 17.9737 -1.7122 0.0000 0.0000 6.2368 -12.1781 -52.1760 9.6740 7.1250 -0.0000 -0.0000 63.6296 -75.5324 -49.6104
8.9730 16.2677 31.3132 179.0440 -0.6313 -153.7270 0.0000 0.0000 0.0000 -18.4631 -15.4864 -20.2067 0.2146 2.9825 8.2300 0.2667 0.5537 -9.9720 4.2747 -12.5173 -37.5873 0.0000 0.0000 0.0000 17.8986 15.7839 -20.0993 -0.2472 -3.1995 8.8346 -1.3504 -1.2449 -22.4435 -3.1682 10.9624 -32.1533 -5.3836 -1.5614 -30.9361 -0.4499 -0.9825 -2.0159 1.9475 -1.1127 13.9725 -1.4611 -3.8665 0.5390 5.4307 -4.2494 -10.9959 2.1672 -2.0373 -3.4994 0.0000 -0.0000 0.0000 -87.2879 -5.7805 32.1986 7.9672 -13.4996 -0.9444 -0.0000 -0.0000 9.4925 22.4024 -11.3890 -4.6537 -7.1250 0.0000 -0.0000 -3.3152 17.7008 2.1539 0.0000 -0.0000 0.0000 92.7712 5.5475 12.2707 -10.7257 17.8666 -1.6908 0.0000 0.0000 6.4950 -12.5394 -52.5630 10.0153 7.1250 -0.0000 -0.0000 64.9026 -75.8010 -51.0440
8.9741 16.2661 31.3131 179.0840 -0.6451 -153.7190 0.0000 0.0000 0.0000 -18.4176 -15.4669 -20.2250 0.2138 2.9769 8.2144 0.2621 0.6213 -9.9155 4.3203 -12.5749 -37.7973 0.0000 0.0000 0.0000 17.9092 15.8888 -20.0666 -0.2415 -3.1622 8.7306 -1.3424 -1.2339 -22.3737 -3.0698 10.8072 -31.6325 -5.3478 -1.5434 -30.9620 -0.4430 -0.9723 -2.0203 1.9392 -1.1068 13.9781 -1.4576 -3.8501 0.5259 5.4166 -4.2314 -10.9640 2.1601 -2.0284 -3.4868 -0.0000 -0.0000 0.0000 -87.2689 -5.7846 32.3704 8.0267 -13.5962 -0.9584 -0.0000 -0.0000 9.1768 23.1249 -10.8061 -4.5777 -7.1250 0.0000 -0.0000 -2.7846 18.2627 1.7738 -0.0000 -0.0000 0.0000 92.8096 5.6667 12.0107 -10.6439 17.7404 -1.6658 0.0000 0.0000 6.8058 -12.5789 -52.5660 10.0477 7.1250 -0.0000 -0.0000 64.8957 -75.8171 -51.0550
8.9754 16.2632 31.3130 179.0850 -0.5997 -153.7150 0.0000 0.0000 0.0000 -18.4381 -15.3896 -20.2339 0.2107 2.9550 8.1535 0.2586 0.6341 -9.8572 4.4046 -12.6801 -38.1826 0.0000 0.0000 0.0000 17.9026 15.8908 -20.0902 -0.2431 -3.1732 8.7612 -1.3454 -1.1544 -22.3670 -2.9975 10.6910 -31.2446 -5.3573 -1.5148 -30.9923 -0.4455 -0.9320 -2.0247 1.9570 -1.0903 13.9832 -1.4610 -3.8207 0.4931 5.3924 -4.1977 -10.9193 2.1495 -2.0108 -3.4667 -0.0000 0.0000 0.0000 -87.2647 -5.8202 32.4365 7.9942 -13.5434 -0.9508 -0.0000 -0.0000 9.1583 22.2424 -11.3146 -4.5873 -7.1250 0.0000 -0.0000 -3.4247 17.7951 2.2182 -0.0000 0.0000 0.0000 92.8131 5.7605 11.8003 -10.5568 17.6058 -1.6394 0.0000 0.0000 6.9969 -12.3867 -52.1646 9.8401 7.1250 -0.0000 -0.0000 63.4800 -75.6085 -49.5576
8.9760 16.2605 31.3125 179.0630 -0.4987 -153.6340 0.0000 0.0000 0.0000 -18.4790 -15.3408 -20.2909 0.2071 2.9301 8.0842 0.2594 0.5342 -9.8295 4.3608 -12.6256 -37.9826 0.0000 0.0000 0.0000 17.8796 15.7713 -20.2699 -0.2494 -3.2132 8.8730 -1.3473 -1.0288 -22.3328 -3.0801 10.8235 -31.6870 -5.4032 -1.4876 -31.1172 -0.4506 -0.8817 -2.0385 1.9931 -1.0747 14.0177 -1.4605 -3.7884 0.4762 5.3654 -4.1621 -10.8659 2.1375 -1.9933 -3.4467 -0.0000 -0.0000 0.0000 -87.3051 -5.8590 32.4056 8.0094 -13.5680 -0.9543 -0.0000 -0.0000 9.0261 21.8910 -10.8120 -4.3105 -7.1250 0.0000 -0.0000 -3.6548 18.3634 2.3220 -0.0000 -0.0000 0.0000 92.7946 5.8136 11.7536 -10.5195 17.5480 -1.6281 0.0000 0.0000 7.0109 -12.2430 -51.7525 9.6711 7.1250 -0.0000 -0.0000 62.0446 -75.4044 -48.0611
8.9772 16.2587 31.3135 179.0850 -0.4823 -153.5450 0.0000 0.0000 0.0000 -18.4247 -15.3164 -20.4424 0.2109 2.9569 8.1587 0.2640 0.3843 -9.8526 4.1737 -12.3880 -37.1189 0.0000 0.0000 0.0000 17.9091 15.6617 -20.4430 -0.2553 -3.2508 8.9778 -1.3590 -0.8232 -22.3500 -3.0860 10.8330 -31.7187 -5.3991 -1.4737 -31.2091 -0.4529 -0.8693 -2.0649 1.9907 -1.0725 14.0259 -1.4544 -3.7826 0.4977 5.3803 -4.1578 -10.8260 2.1409 -1.9935 -3.4370 0.0000 0.0000 0.0000 -87.3011 -5.8598 32.3003 8.0046 -13.5602 -0.9532 -0.0000 -0.0000 9.1861 21.9672 -10.9156 -4.3679 -7.1250 0.0000 -0.0000 -3.6043 18.2462 2.2991 0.0000 0.0000 0.0000 92.8219 5.7875 11.8513 -10.5549 17.6028 -1.6388 0.0000 0.0000 6.9142 -12.2837 -51.6895 9.6954 7.1250 -0.0000 -0.0000 61.7937 -75.3964 -47.8302
8.9784 16.2608 31.3141 179.1340 -0.4794 -153.5820 0.0000 0.0000 0.0000 -18.3675 -15.2730 -20.4786 0.2175 3.0024 8.2854 0.2695 0.3752 -9.9484 4.0775 -12.2629 -36.6684 0.0000 0.0000 0.0000 17.9730 15.6093 -20.4242 -0.2555 -3.2524 8.9823 -1.3664 -0.6230 -22.3357 -2.9832 10.6678 -31.1674 -5.3607 -1.4538 -31.1463 -0.4566 -0.8590 -2.0737 1.9718 -1.0641 13.9876 -1.4286 -3.7943 0.5329 5.4036 -4.1685 -10.8492 2.1461 -2.0008 -3.4515 0.0000 0.0000 0.0000 -87.2511 -5.8601 32.3658 8.0265 -13.5958 -0.9584 -0.0000 -0.0000 9.1185 21.9200 -10.8719 -4.3404 -7.1250 0.0000 -0.0000 -3.6362 18.2969 2.3155 0.0000 0.0000 0.0000 92.8796 5.7410 12.0054 -10.6077 17.6845 -1.6548 0.0000 0.0000 6.7975 -12.1219 -51.7720 9.5769 7.1250 -0.0000 -0.0000 62.1824 -75.3652 -48.1419
8.9782 16.2620 31.3148 179.1250 -0.4300 -153.5560 0.0000 0.0000 0.0000 -18.3675 -15.3570 -20.5050 0.2199 3.0190 8.3318 0.2714 0.5033 -10.0352 4.1503 -12.3578 -37.0096 0.0000 0.0000 0.0000 17.9297 15.5991 -20.5049 -0.2542 -3.2441 8.9591 -1.3520 -0.5694 -22.1990 -2.9406 10.5982 -30.9364 -5.3778 -1.4362 -31.1242 -0.4644 -0.8391 -2.1132 1.9807 -1.0572 13.9303 -1.3795 -3.7943 0.5464 5.3931 -4.1648 -10.8723 2.1349 -2.0002 -3.4634 0.0000 -0.0000 0.0000 -87.2247 -5.8408 32.3832 8.0022 -13.5565 -0.9527 -0.0000 -0.0000 9.2034 21.8020 -10.8068 -4.2892 -7.1250 0.0000 -0.0000 -3.7174 18.3764 2.3608 0.0000 -0.0000 0.0000 92.9095 5.7366 12.0398 -10.6144 17.6948 -1.6568 0.0000 0.0000 6.8165 -11.9304 -51.6061 9.4028 7.1250 -0.0000 -0.0000 61.6954 -75.2292 -47.5666
8.9788 16.2615 31.3136 179.1140 -0.4203 -153.5310 0.0000 0.0000 0.0000 -18.3602 -15.4427 -20.4779 0.2180 3.0056 8.2944 0.2716 0.5699 -10.0674 4.2287 -12.4587 -37.3747 0.0000 0.0000 0.0000 17.9088 15.6149 -20.5357 -0.2527 -3.2345 8.9323 -1.3405 -0.6496 -22.1342 -2.9557 10.6230 -31.0186 -5.3937 -1.4322 -31.1750 -0.4694 -0.8275 -2.1155 1.9872 -1.0545 13.9487 -1.3218 -3.8081 0.5564 5.4004 -4.1760 -10.9049 2.1286 -2.0073 -3.4773 -0.0000 0.0000 0.0000 -87.2159 -5.8970 32.3160 8.0025 -13.5569 -0.9527 -0.0000 -0.0000 9.0863 21.6709 -10.7130 -4.2245 -7.1250 0.0000 -0.0000 -3.8071 18.4876 2.4087 -0.0000 0.0000 0.0000 92.9311 5.7663 12.0228 -10.6042 17.6790 -1.6537 0.0000 0.0000 6.8362 -11.9215 -51.2712 9.3527 7.1250 -0.0000 -0.0000 60.5172 -75.0944 -46.3872
8.9802 16.2608 31.3124 179.1450 -0.4607 -153.5250 0.0000 0.0000 0.0000 -18.3029 -15.4622 -20.4654 0.2160 2.9922 8.2571 0.2691 0.5647 -10.0196 4.2001 -12.4220 -37.2416 0.0000 0.0000 0.0000 17.9351 15.7092 -20.4655 -0.2489 -3.2105 8.8652 -1.3464 -0.6753 -22.1917 -2.9039 10.5378 -30.7366 -5.3604 -1.4244 -31.2413 -0.4732 -0.8185 -2.0791 1.9675 -1.0485 14.0193 -1.3038 -3.8147 0.5135 5.4167 -4.1793 -10.9068 2.1297 -2.0084 -3.4697 0.0000 -0.0000 0.0000 -87.1635 -5.9945 32.4711 7.9713 -13.5064 -0.9454 -0.0000 -0.0000 9.0653 21.6623 -10.6665 -4.2046 -7.1250 0.0000 -0.0000 -3.8118 18.5379 2.4075 0.0000 -0.0000 0.0000 92.9750 5.8084 12.0053 -10.6070 17.6834 -1.6546 0.0000 0.0000 6.8237 -11.7168 -51.0412 9.1612 7.1250 -0.0000 -0.0000 59.8452 -74.9222 -45.6191
